<svg width="89" height="36" viewBox="0 0 89 36" fill="none" xmlns="http://www.w3.org/2000/svg">
<path d="M59.8439 30.9962C58.4399 32.0166 56.7377 32.5486 54.9999 32.5101C52.2974 32.5101 49.6645 31.8178 48.2461 30.9039C48.4408 30.3085 48.7699 29.1639 48.9043 28.5085L52.0703 13.7116C52.3329 12.5903 52.4881 11.4467 52.5339 10.2962C52.542 9.86645 52.4984 9.43725 52.4041 9.01778L57.0024 7.60547C57.1034 8.0692 57.147 8.5435 57.1322 9.01778C57.1161 10.0426 57.006 11.0637 56.8031 12.0685L56.2422 14.727C56.0876 15.4947 55.8785 16.2504 55.6164 16.9885C56.1916 16.3245 56.9029 15.7907 57.7024 15.4229C58.5019 15.0552 59.3711 14.8619 60.2518 14.8562C63.3854 14.8562 64.7667 17.0578 64.7667 20.6993C64.7667 24.8301 63.0192 28.7716 59.8578 30.9962H59.8439ZM58.6248 18.4332C57.2759 18.4332 55.8435 19.5501 54.9674 21.0593L53.3219 28.5362C53.9681 29.0529 54.7845 29.3112 55.6118 29.2609C56.5667 29.2609 57.7533 28.3747 58.393 27.2947C59.3201 25.6516 59.9737 21.9455 59.9737 20.6301C59.9737 19.1901 59.5472 18.4332 58.6572 18.4332H58.6248ZM73.3561 13.3839C72.6353 13.379 71.9458 13.0896 71.4392 12.579C70.9325 12.0685 70.65 11.3786 70.6537 10.6609C70.6567 10.3004 70.7311 9.94415 70.8726 9.61238C71.014 9.28061 71.2198 8.97987 71.4781 8.72738C71.7365 8.47488 72.0423 8.27558 72.378 8.14089C72.7138 8.00619 73.073 7.93874 73.4349 7.94239C73.7898 7.9454 74.1406 8.01821 74.4671 8.15663C74.7936 8.29505 75.0894 8.49635 75.3375 8.74897C75.5856 9.0016 75.7812 9.30055 75.9129 9.62866C76.0446 9.95676 76.1098 10.3075 76.1049 10.6609C76.1056 11.0186 76.0352 11.373 75.898 11.7036C75.7608 12.0343 75.5593 12.3347 75.3053 12.5877C75.0512 12.8407 74.7495 13.0413 74.4174 13.1779C74.0853 13.3145 73.7294 13.3845 73.37 13.3839H73.3561ZM70.9828 32.0855H66.5699L70.0928 15.5855L74.6402 14.8932L70.9828 32.0855ZM87.5961 15.2855L86.0155 18.3039H83.0812L81.3012 26.7362C81.1918 27.2194 81.1374 27.7133 81.139 28.2085C81.139 29.1316 81.6304 29.427 82.6177 29.427C83.1819 29.4031 83.7388 29.291 84.2679 29.0947V31.7532C83.0689 32.2177 81.7951 32.4617 80.5086 32.4732C77.973 32.4732 76.5221 31.227 76.5221 29.5885C76.5266 28.8611 76.6042 28.1359 76.7539 27.4239L78.6961 18.3039H77.0181L77.6763 15.2855H79.359C79.5869 13.9363 79.928 12.6086 80.3788 11.3162L85.0142 10.1993C84.5229 11.7409 84.0269 13.5778 83.6653 15.2762L87.5961 15.2855Z" fill="#155DA4"/>
<path d="M25.4034 3.19016C17.4676 6.87785 13.6711 11.2855 11.5296 15.2317C11.4832 15.3794 11.5759 15.5732 11.6779 15.4717C13.9632 14.2163 16.1047 13.584 17.5649 13.584C21.0229 13.5655 24.1055 16.6163 24.1379 21.2317C24.1379 26.0271 21.8202 29.9548 17.4212 32.1379C15.7966 32.9285 14.0189 33.3584 12.211 33.3979C5.93 33.3932 3.24609 28.9348 3.24609 24.0379C3.24609 13.7594 13.2818 4.98555 24.8703 1.69016C25.1114 1.78247 25.5981 2.99632 25.4034 3.19016ZM10.1158 18.4625C9.44207 20.3122 9.09547 22.2641 9.09135 24.2317C9.09135 29.0779 10.8945 31.3855 13.5738 31.3855C16.4941 31.3855 18.543 27.3332 18.543 23.0779C18.4966 18.6655 16.7444 16.5794 13.8241 16.5794C12.8476 16.6096 11.8931 16.8757 11.0429 17.3548C10.6353 17.6337 10.3141 18.0206 10.1158 18.4717V18.4625ZM47.6627 3.19016C39.7222 6.87324 35.9212 11.2855 33.7796 15.2317C33.7332 15.3748 33.8259 15.5686 33.9279 15.4717C36.2132 14.2117 38.3547 13.5794 39.8149 13.5794C43.2729 13.5609 46.3555 16.6163 46.3879 21.2317C46.3879 26.0317 44.0702 29.9594 39.6712 32.1425C38.0462 32.9315 36.2685 33.3599 34.461 33.3979C28.18 33.3886 25.4961 28.9302 25.4961 24.0379C25.4961 13.7548 35.5318 4.98093 47.1203 1.68555C47.366 1.78247 47.8527 2.99632 47.658 3.19016H47.6627ZM32.3704 18.4625C31.6942 20.3115 31.3475 22.2639 31.346 24.2317C31.346 29.0779 33.1492 31.3855 35.8238 31.3855C38.7441 31.3855 40.793 27.3332 40.793 23.0779C40.742 18.6702 38.9898 16.584 36.0695 16.584C35.093 16.6142 34.1385 16.8803 33.2882 17.3594C32.8791 17.6366 32.5576 18.024 32.3611 18.4763L32.3704 18.4625Z" fill="#155DA4"/>
</svg>
